<?xml version="1.0" encoding="iso-8859-1"?>
<!-- Uploaded to: SVG Repo, www.svgrepo.com, Generator: SVG Repo Mixer Tools -->
<svg height="800px" width="800px" version="1.1" id="Capa_1" xmlns="http://www.w3.org/2000/svg" xmlns:xlink="http://www.w3.org/1999/xlink" 
	 viewBox="0 0 330.385 330.385" xml:space="preserve">
	<g>
		<g>
			<path style="fill:#010002;" d="M48.639,29.915v48.076l71.845-58.954H59.517C53.517,19.037,48.639,23.916,48.639,29.915z"/>
			<path style="fill:#010002;" d="M273.68,29.915c0-5.999-4.879-10.878-10.878-10.878h-60.635l71.513,58.682V29.915z"/>
			<path style="fill:#010002;" d="M226.795,158.75l24.302,14.082c0.337,0.087,1.142,0.239,2.284,0.239
				c1.017,0,1.735-0.125,2.04-0.196l18.254-10.106v-42.115c-3.873-0.484-7.5-1.942-10.405-4.324L161.325,32.678l-101.95,83.653
				c-2.986,2.453-6.739,3.916-10.737,4.351v39.993l7.109-3.568c7.528-3.78,16.431-5.776,25.749-5.776
				c11.166,0,22.028,2.899,30.589,8.169l16.323,10.062v-62.277c0-3.008,2.431-5.439,5.439-5.439h62.549
				c3.008,0,5.439,2.431,5.439,5.439v44.225C210.946,152.185,219.681,154.622,226.795,158.75z"/>
			<path style="fill:#010002;" d="M302.159,213.766l-41.941,23.225c-3.378,1.876-10.737,1.8-14.071-0.125l-24.606-14.256
				c-13.076-7.587-32.433-8.18-46.004-1.452l-32.536,16.159c-3.563,1.773-11.161,1.458-14.495-0.598l-21.914-13.505
				c-13.032-8.023-32.439-8.833-46.134-1.947L12.996,245.09c-8.05,4.047-11.308,13.853-7.267,21.903
				c2.866,5.706,8.621,9.002,14.598,9.002c2.464,0,4.96-0.566,7.31-1.735l47.467-23.829c3.53-1.773,11.058-1.474,14.375,0.566
				l21.919,13.505c12.999,8.006,32.379,8.866,46.118,2.051l32.542-16.159c3.677-1.828,11.591-1.605,15.131,0.451l24.606,14.256
				c13.32,7.729,32.776,7.903,46.243,0.435l41.935-23.225c7.881-4.362,10.737-14.294,6.369-22.175
				C319.977,212.249,310.04,209.382,302.159,213.766z"/>
			<path style="fill:#010002;" d="M302.159,268.157l-41.941,23.225c-3.378,1.871-10.737,1.795-14.071-0.125l-24.606-14.256
				c-13.076-7.588-32.433-8.186-46.004-1.452l-32.536,16.159c-3.563,1.773-11.161,1.458-14.495-0.598l-21.914-13.505
				c-13.032-8.023-32.439-8.833-46.134-1.947L12.996,299.48c-8.05,4.047-11.308,13.853-7.267,21.903
				c2.866,5.706,8.621,9.002,14.598,9.002c2.464,0,4.96-0.566,7.31-1.735l47.467-23.829c3.53-1.773,11.058-1.474,14.375,0.566
				l21.919,13.505c12.999,8.006,32.379,8.86,46.118,2.051l32.542-16.159c3.677-1.833,11.591-1.605,15.131,0.451l24.606,14.256
				c13.32,7.729,32.776,7.908,46.243,0.435l41.935-23.225c7.881-4.362,10.737-14.294,6.369-22.175
				C319.977,266.634,310.04,263.767,302.159,268.157z"/>
			<path style="fill:#010002;" d="M43.199,93.008l-4.873,3.998c-0.218,0.179-0.375,0.381-0.566,0.571
				c-3.563,3.427-3.563,8.452,0,11.879c0.196,0.19,0.354,0.392,0.566,0.571c1.403,1.148,3.089,1.893,4.873,2.306
				c1.006,0.234,2.029,0.392,3.062,0.392c0.8,0,1.594-0.087,2.377-0.223c2.034-0.359,3.976-1.175,5.559-2.475l107.128-87.906
				l107.128,87.901c1.496,1.229,3.318,2.002,5.227,2.393c0.892,0.179,1.795,0.305,2.709,0.305c0.919,0,1.833-0.125,2.73-0.31
				c1.904-0.392,3.715-1.164,5.2-2.388c0.092-0.076,0.152-0.163,0.239-0.239c4.03-3.53,4.03-9.013,0-12.542
				c-0.087-0.076-0.147-0.163-0.239-0.239l-5.2-4.27l-5.439-4.46l-84.376-69.234l-6.63-5.439l-6.625-5.439l-6.788-5.57
				C167.156,0.865,164.24,0,161.325,0c-2.915,0-5.831,0.865-7.936,2.589l-6.788,5.57l-6.625,5.439l-6.63,5.439L48.639,88.543
				L43.199,93.008z"/>
			<path style="fill:#010002;" d="M170.876,156.982c5.972-2.97,12.836-4.792,20.086-5.455v-38.808h-51.671v59.944L170.876,156.982z"
				/>
			<path style="fill:#010002;" d="M5.893,212.51c2.807,5.749,8.507,9.083,14.43,9.083c2.399,0,4.835-0.549,7.131-1.697l47.467-23.823
				c1.61-0.81,4.025-1.197,6.511-1.197c3.122,0,6.358,0.615,8.251,1.779l21.914,13.505c7.076,4.357,16.062,6.581,24.976,6.581
				c7.326,0,14.609-1.501,20.75-4.547l32.542-16.159c1.719-0.854,4.34-1.273,7.027-1.273c3.214,0,6.516,0.593,8.49,1.735
				l24.606,14.261c6.744,3.905,15.066,5.863,23.377,5.863c7.974,0,15.936-1.806,22.474-5.434l41.935-23.225
				c7.8-4.319,10.671-14.229,6.413-22.137c-2.921-5.428-8.436-8.501-14.131-8.501c-2.605,0-5.249,0.642-7.696,2.002l-17.889,9.905
				l-5.978,3.307l-18.074,10.008c-1.692,0.941-4.346,1.403-7.027,1.403c-2.828,0-5.678-0.517-7.435-1.528l-5.619-3.258
				l-18.988-10.998c-5.651-3.274-12.483-5.167-19.504-5.793c-1.621-0.141-3.242-0.288-4.873-0.288c-0.19,0-0.381,0.027-0.566,0.027
				c-1.822,0.016-3.639,0.12-5.439,0.321c-5.428,0.604-10.671,2.018-15.246,4.286l-12.929,6.424l-10.954,5.439l-1.175,0.582
				l-7.49,3.72c-1.49,0.734-3.682,1.082-5.967,1.137c-0.185,0.005-0.354,0.044-0.544,0.044c-0.305,0-0.604-0.033-0.908-0.044
				c-1.452-0.054-2.877-0.228-4.177-0.533c-1.267-0.299-2.42-0.696-3.28-1.218l-5.031-3.1l-16.883-10.405
				c-7.054-4.34-16.002-6.554-24.884-6.554c-7.375,0-14.702,1.523-20.87,4.618l-11.161,5.602l-4.863,2.442l-4.835,2.426
				L13.176,190.65C5.208,194.642,1.944,204.433,5.893,212.51z"/>
		</g>
	</g>
</svg>